<?xml version="1.0" encoding="UTF-8"?>
<svg xmlns="http://www.w3.org/2000/svg" xmlns:xlink="http://www.w3.org/1999/xlink" width="30px" height="30px" viewBox="0 0 30 30" version="1.1">
<g id="surface1">
<path style=" stroke:none;fill-rule:nonzero;fill:rgb(0%,0%,0%);fill-opacity:1;" d="M 22.261719 11.761719 L 22.261719 14.667969 C 22.261719 16.671875 21.449219 18.480469 20.132812 19.800781 C 18.8125 21.117188 17.003906 21.929688 15 21.929688 C 12.996094 21.929688 11.1875 21.117188 9.867188 19.800781 C 8.550781 18.480469 7.738281 16.671875 7.738281 14.667969 L 7.738281 11.761719 L 5.59375 11.761719 L 5.59375 14.667969 C 5.597656 19.492188 9.242188 23.472656 13.929688 24.007812 L 13.929688 28.09375 L 11.191406 28.09375 L 11.191406 30 L 18.808594 30 L 18.808594 28.09375 L 16.070312 28.09375 L 16.070312 24.007812 C 20.757812 23.472656 24.402344 19.492188 24.40625 14.667969 L 24.40625 11.761719 Z M 22.261719 11.761719 "/>
<path style=" stroke:none;fill-rule:nonzero;fill:rgb(0%,0%,0%);fill-opacity:1;" d="M 15 19.570312 C 17.703125 19.570312 19.90625 17.371094 19.90625 14.667969 L 19.90625 4.90625 C 19.90625 2.199219 17.703125 0 15 0 C 12.296875 0 10.09375 2.199219 10.09375 4.90625 L 10.09375 14.667969 C 10.09375 17.371094 12.296875 19.570312 15 19.570312 Z M 15 19.570312 "/>
</g>
</svg>
